<svg width="145" height="78" viewBox="0 0 145 78" fill="none" xmlns="http://www.w3.org/2000/svg">
<path fill-rule="evenodd" clip-rule="evenodd" d="M4.78314 77.0721C6.28894 77.0721 7.61759 76.5446 8.41478 75.4895L7.08613 74.2585C6.4661 74.9619 5.75748 75.3136 4.87172 75.3136C3.18876 75.3136 2.03726 74.1706 2.03726 72.5001C2.03726 70.8295 3.18876 69.6865 4.87172 69.6865C5.75748 69.6865 6.4661 70.0382 7.08613 70.7416L8.41478 69.5106C7.61759 68.5435 6.28894 67.928 4.78314 67.928C2.03726 67.928 0 69.7744 0 72.4121C0.0885767 75.2257 2.12584 77.0721 4.78314 77.0721ZM20.5498 77.0721C23.2957 77.0721 25.3329 75.1378 25.3329 72.588C25.3329 69.9502 23.2957 68.1038 20.5498 68.1038C17.8039 68.1038 15.7666 70.0382 15.7666 72.588C15.7666 75.1378 17.8039 77.0721 20.5498 77.0721ZM20.5498 75.4016C18.9554 75.4016 17.8039 74.2585 17.8039 72.588C17.8039 70.9174 18.9554 69.7744 20.5498 69.7744C22.1442 69.7744 23.2957 70.9174 23.2957 72.588C23.2957 74.2585 22.1442 75.4016 20.5498 75.4016ZM39.5938 68.1918V73.4672L35.2535 68.1918H33.5706V76.8963H35.6078V71.6208L39.9481 76.8963H41.631V68.1918H39.5938ZM53.2346 77.0721C55.7147 77.0721 56.9548 75.8412 56.9548 74.3465C56.9548 71.1812 51.8173 72.2363 51.8173 70.6536C51.8173 70.1261 52.2602 69.6865 53.5003 69.6865C54.2975 69.6865 55.0947 69.9502 55.8919 70.3899L56.5119 68.8951C55.7147 68.3676 54.5632 68.1038 53.5003 68.1038C51.0202 68.1038 49.7801 69.3348 49.7801 70.8295C49.7801 74.0827 54.9175 72.9397 54.9175 74.6102C54.9175 75.1378 54.3861 75.5774 53.2346 75.5774C52.1717 75.5774 51.1087 75.2257 50.3115 74.6982L49.6029 76.1929C50.4001 76.6325 51.8174 77.0721 53.2346 77.0721ZM68.9126 77.0721C71.3928 77.0721 72.8986 75.6653 72.8986 73.1155V68.2797H70.8613V73.1155C70.8613 74.7861 70.1527 75.4895 68.9126 75.4895C67.6726 75.4895 66.964 74.7861 66.964 73.1155V68.2797H64.9267V73.1155C64.9267 75.6653 66.4325 77.0721 68.9126 77.0721ZM81.5791 76.8963H88.0452V75.3136H83.6164V68.2797H81.5791V76.8963ZM96.8143 76.8963H98.8516V69.8623H101.686V68.1918H94.0684V69.8623H96.9029V76.8963H96.8143ZM109.392 76.8963H111.429V68.1918H109.392V76.8963ZM126.31 68.1918V73.4672L121.97 68.1918H120.287V76.8963H122.324V71.6208L126.665 76.8963H128.348V68.1918H126.31ZM142.963 74.9619C142.431 75.2257 141.9 75.3136 141.368 75.3136C139.685 75.3136 138.534 74.1706 138.534 72.5001C138.534 70.8295 139.685 69.6865 141.368 69.6865C142.254 69.6865 142.963 70.0382 143.671 70.6536L145 69.4227C144.114 68.4555 142.874 67.928 141.368 67.928C138.534 67.928 136.497 69.7744 136.497 72.4121C136.497 75.0499 138.534 76.8963 141.28 76.8963C142.52 76.8963 143.849 76.5446 144.823 75.7533V72.2363H142.963V74.9619Z" fill="white"/>
<path fill-rule="evenodd" clip-rule="evenodd" d="M0.942048 44.4144V57.7475H13.0631V58.7838H0.439622H0V58.2311V44.4144H0.942048Z" fill="white"/>
<path fill-rule="evenodd" clip-rule="evenodd" d="M144.063 44.4144V57.7475H131.937V58.7838H144.5H145V58.2311V44.4144H144.063Z" fill="white"/>
<path fill-rule="evenodd" clip-rule="evenodd" d="M0.942048 14.3694V1.03625H13.0631V0H0.439622H0V0.483585V14.3694H0.942048Z" fill="white"/>
<path fill-rule="evenodd" clip-rule="evenodd" d="M144.063 14.3694V1.03625H131.937V0H144.5H145V0.483585V14.3694H144.063Z" fill="white"/>
<path d="M26.7969 48.3333C23.8768 48.3333 21.0447 47.9496 18.3006 47.1822C15.5916 46.3799 13.4104 45.3508 11.7568 44.095L14.6593 37.7115C16.2425 38.8626 18.1247 39.787 20.3059 40.4847C22.4871 41.1823 24.6684 41.5311 26.8496 41.5311C29.2771 41.5311 31.0714 41.1823 32.2324 40.4847C33.3934 39.7521 33.9738 38.7928 33.9738 37.6068C33.9738 36.7347 33.622 36.0196 32.9184 35.4615C32.25 34.8685 31.3704 34.3976 30.2798 34.0488C29.2244 33.6999 27.7819 33.3162 25.9525 32.8976C23.138 32.2348 20.8336 31.5721 19.0394 30.9093C17.2451 30.2465 15.6971 29.1826 14.3954 27.7175C13.1289 26.2524 12.4956 24.299 12.4956 21.8572C12.4956 19.7293 13.0761 17.8107 14.2371 16.1015C15.3981 14.3573 17.1396 12.9795 19.4615 11.9678C21.8187 10.9562 24.686 10.4504 28.0634 10.4504C30.4205 10.4504 32.7249 10.7295 34.9765 11.2876C37.2281 11.8458 39.1983 12.6481 40.887 13.6946L38.2484 20.1305C34.8358 18.2119 31.4232 17.2526 28.0106 17.2526C25.6183 17.2526 23.8416 17.6363 22.6806 18.4038C21.5548 19.1712 20.9919 20.1828 20.9919 21.4386C20.9919 22.6944 21.6428 23.6362 22.9445 24.2641C24.2814 24.8571 26.3043 25.4501 29.0133 26.0431C31.8278 26.7059 34.1322 27.3687 35.9264 28.0314C37.7207 28.6942 39.251 29.7407 40.5176 31.1709C41.8193 32.6011 42.4701 34.5371 42.4701 36.9789C42.4701 39.0719 41.8721 40.9905 40.6759 42.7346C39.5149 44.4439 37.7558 45.8043 35.3987 46.8159C33.0415 47.8275 30.1743 48.3333 26.7969 48.3333Z" fill="white"/>
<path d="M50.9503 11.0783H67.7318C71.7425 11.0783 75.2782 11.8458 78.339 13.3806C81.435 14.8806 83.8273 17.0084 85.516 19.7642C87.2399 22.5199 88.1018 25.7292 88.1018 29.3919C88.1018 33.0546 87.2399 36.2638 85.516 39.0196C83.8273 41.7753 81.435 43.9206 78.339 45.4555C75.2782 46.9554 71.7425 47.7054 67.7318 47.7054H50.9503V11.0783ZM67.3097 40.7463C71.0037 40.7463 73.9413 39.7347 76.1226 37.7115C78.339 35.6534 79.4472 32.8802 79.4472 29.3919C79.4472 25.9036 78.339 23.1478 76.1226 21.1246C73.9413 19.0665 71.0037 18.0375 67.3097 18.0375H59.4994V40.7463H67.3097Z" fill="white"/>
<path d="M121 39.8568H103.849L100.577 47.7054H91.8173L108.282 11.0783H116.726L133.243 47.7054H124.272L121 39.8568ZM118.309 33.4209L112.451 19.3979L106.593 33.4209H118.309Z" fill="white"/>
</svg>
