<svg width="116" height="31" viewBox="0 0 116 31" fill="none" xmlns="http://www.w3.org/2000/svg">
<path d="M12.0668 28.6591C18.7312 28.6591 24.1337 23.2566 24.1337 16.5922C24.1337 9.9279 18.7312 4.52539 12.0668 4.52539C5.40251 4.52539 0 9.9279 0 16.5922C0 23.2566 5.40251 28.6591 12.0668 28.6591Z" fill="#FF4644"/>
<path d="M41.4497 24.4955L40.3335 21.6598H33.6364L32.5202 24.4955H28.3572L34.7828 9.32143C34.9034 9.01976 35.2353 8.80859 35.537 8.80859H38.433C38.795 8.80859 39.0665 8.9896 39.1872 9.32143L45.6429 24.4955H41.4497ZM37.0151 13.1527L34.9939 18.3112H39.0363L37.0151 13.1527Z" fill="white"/>
<path d="M68.0571 17.1053V24.466H64.2862V17.9198C64.2862 16.5924 63.4113 15.7478 62.2951 15.7478C60.9075 15.7478 59.9723 16.7433 59.9723 18.7041V24.466H56.1712V17.9198C56.1712 16.5924 55.2964 15.7478 54.15 15.7478C52.7925 15.7478 51.8875 16.7433 51.8875 18.7041V24.466H48.0864V13.455C48.0864 13.0629 48.4484 12.7009 48.8406 12.7009H51.8875V13.7869C52.6718 12.8819 53.8483 12.3389 55.3869 12.3389C57.0159 12.3389 58.4639 13.0629 59.2784 14.3299C60.2136 13.1232 61.6616 12.3389 63.4717 12.3389C66.0359 12.369 68.0571 14.2696 68.0571 17.1053Z" fill="white"/>
<path d="M83.7137 24.4953H79.9428V23.53C79.0378 24.3445 77.801 24.797 76.2624 24.797C73.0949 24.797 70.4402 22.2931 70.4402 18.5826C70.4402 14.9022 73.0949 12.3682 76.2624 12.3682C77.801 12.3682 79.0378 12.8508 79.9428 13.6352V12.7H83.7439V24.4953H83.7137ZM79.9428 18.6128C79.9428 16.8027 78.5853 15.5659 77.0468 15.5659C75.4178 15.5659 74.1809 16.8027 74.1809 18.6128C74.1809 20.4228 75.3876 21.6596 77.0468 21.6596C78.5853 21.6295 79.9428 20.4228 79.9428 18.6128Z" fill="white"/>
<path d="M99.5817 24.4953H95.7806V23.5299C94.8756 24.3444 93.6387 24.7969 92.1002 24.7969C88.9327 24.7969 86.278 22.2931 86.278 18.5825C86.278 14.9021 88.9327 12.3681 92.1002 12.3681C93.6387 12.3681 94.8756 12.8507 95.7806 13.6351V7.63184H99.5817V24.4953ZM95.7806 18.6127C95.7806 16.8026 94.4231 15.5658 92.8846 15.5658C91.2555 15.5658 90.0187 16.8026 90.0187 18.6127C90.0187 20.4227 91.2254 21.6595 92.8846 21.6595C94.3929 21.6294 95.7806 20.4227 95.7806 18.6127Z" fill="white"/>
<path d="M115.239 18.613C115.239 22.3235 112.252 24.8274 108.722 24.8274C105.133 24.8274 102.146 22.3537 102.146 18.613C102.146 14.9326 105.102 12.4287 108.722 12.4287C112.252 12.4287 115.239 14.9024 115.239 18.613ZM111.588 18.613C111.588 16.8029 110.201 15.5661 108.722 15.5661C107.184 15.5661 105.796 16.7728 105.796 18.613C105.796 20.4532 107.184 21.6599 108.722 21.6599C110.17 21.6297 111.588 20.4532 111.588 18.613Z" fill="white"/>
<path d="M5.06804 29.3523C5.03787 29.3222 5.00771 29.3222 4.97754 29.292C5.03787 29.3222 5.06804 29.3222 5.06804 29.3523Z" fill="#5637E3"/>
<path d="M2.32277 25.7019C2.32277 25.6718 2.2926 25.6718 2.2926 25.6416C2.2926 25.6718 2.32277 25.6718 2.32277 25.7019Z" fill="#5637E3"/>
<path d="M34.7525 0C34.2397 0.271504 33.9078 0.754178 33.395 1.02568C33.395 0.995515 33.395 0.965348 33.395 0.935181C33.2442 1.02568 33.2743 1.08602 33.214 1.17652C33.1838 1.23685 33.0632 1.29719 33.0028 1.29719C32.9123 1.29719 32.9727 1.29719 32.9425 1.23685C32.9425 1.26702 32.0375 1.90053 31.9168 1.99103C31.7358 2.14187 31.585 2.26253 31.404 2.41337C31.2531 2.53404 31.1023 2.77538 30.9515 2.86588C30.861 2.92621 30.7403 2.92621 30.6196 3.01671C30.4688 3.10721 30.3481 3.22788 30.1973 3.31838C30.0766 3.40888 29.9258 3.43905 29.8353 3.49939C29.6543 3.65022 29.6241 3.86139 29.5336 4.01223C29.3828 4.19323 29.1113 4.34407 28.9303 4.46473C28.7191 4.61557 28.5381 4.76641 28.3571 4.94741C27.9649 5.27925 27.5426 5.61108 27.1504 5.94292C26.3962 6.6066 25.6421 7.30044 24.918 7.99429C24.4957 8.38646 24.0734 8.8088 23.6209 9.20097C23.4097 9.38197 23.2287 9.56298 23.0175 9.77415C22.8968 9.89482 22.8063 9.98532 22.7158 10.106C22.6555 10.2267 22.565 10.3775 22.5047 10.4982C22.4443 8.92947 21.2678 7.36078 19.6086 7.30044C19.6388 7.24011 19.6388 7.20994 19.669 7.14961C18.1908 6.99877 16.7729 7.20994 15.3852 7.81328C14.1182 8.35629 12.9719 9.1708 12.0065 10.1362C11.8255 9.50264 11.5842 8.8088 11.2222 8.23562C11.1317 8.11495 11.0412 7.96412 10.9507 7.84345C10.9205 7.81328 10.7697 7.54178 10.7998 7.72278C10.7093 7.24011 10.3172 6.66693 9.98532 6.3351C10.0155 6.3351 10.0457 6.36526 10.0758 6.39543C9.89482 6.06359 9.59315 5.94292 9.32164 5.70159C9.20098 5.61108 9.11047 5.43008 8.98981 5.36975C8.86914 5.30941 8.7183 5.24908 8.59763 5.18875C8.41663 5.06808 8.23563 5.00774 8.02446 4.94741C7.93396 4.91724 7.84346 4.88707 7.75295 4.88707C7.69262 4.88707 7.54178 4.91724 7.48145 4.88707C7.42112 4.85691 7.39095 4.79657 7.36078 4.76641C7.27028 4.73624 7.14961 4.73624 7.05911 4.73624C6.84794 4.70607 6.63677 4.73624 6.4256 4.73624C5.64126 4.79657 4.82674 5.06808 4.16307 5.52058C3.83123 5.76192 3.55972 6.09376 3.25805 6.39543C2.92621 6.72727 2.59438 7.08927 2.41337 7.54178C2.32287 7.75295 2.29271 7.90379 2.2022 8.08479C2.08154 8.26579 1.99103 8.44679 1.90053 8.6278C1.68936 9.0803 1.50836 9.56298 1.44803 10.0457C1.44803 10.0155 1.44803 9.98532 1.44803 9.95515C1.29719 10.5283 1.17652 11.1317 1.11619 11.7048C1.08602 11.9462 1.08602 12.1875 1.11619 12.3987C1.11619 12.4289 1.14635 12.5194 1.14635 12.5495C1.11619 12.64 1.11619 12.6099 1.05585 12.7004C0.965352 12.821 0.905017 12.8814 0.844683 13.0322C0.754182 13.2434 0.693848 13.4847 0.693848 13.6959C0.693848 13.9674 0.724015 14.2087 0.724015 14.4802C0.724015 15.0534 0.693848 15.6266 0.784349 16.1997C0.814516 16.3807 0.754182 16.5014 0.754182 16.7126C0.754182 16.8634 0.754182 17.0143 0.724015 17.1651C0.724015 17.2254 0.693848 17.1651 0.693848 17.2556C0.693848 17.3159 0.724015 17.4064 0.724015 17.4668C0.754182 17.6176 0.784349 17.7684 0.814516 17.9193C0.87485 18.2511 0.935185 18.5829 0.995519 18.9148C1.23686 20.2421 1.47819 21.5695 1.7497 22.8968C1.90053 23.6209 2.05137 24.3449 2.23237 25.099C2.26254 25.28 2.29271 25.4611 2.35304 25.6421C2.41337 25.7929 2.50387 25.8834 2.65471 25.9739C2.92621 26.1549 3.40889 26.5169 3.37872 26.4566C3.68039 26.8789 3.92173 27.9046 3.8614 27.8443C4.2234 28.1158 4.34407 28.6286 4.73624 28.9303C4.82674 28.9906 4.94741 29.0208 5.00775 29.0811C5.03791 29.1113 4.97758 29.1414 5.03791 29.1716C5.12841 29.2319 5.27925 29.4733 5.15858 29.4129C6.6971 30.5593 8.65797 30.499 10.2267 29.4129C11.7048 28.3873 12.6702 26.7884 13.6657 25.3404C14.3294 24.375 15.0232 23.4399 15.7472 22.5047C15.7472 22.565 15.7472 22.6253 15.7171 22.6857C15.8377 22.4142 15.9282 22.1427 16.0489 21.841C16.0791 21.8712 16.0791 21.9315 16.0791 21.9918C16.8936 21.2377 17.2254 20.1516 17.8891 19.2768C17.9494 19.3371 17.9494 19.4578 18.0399 19.4578C18.1304 19.4578 18.1606 19.2466 18.1908 19.1561C18.2813 18.9751 18.4019 18.8545 18.5528 18.7338C18.8545 18.4924 19.0053 18.2813 18.7941 17.9193C18.8846 17.9193 18.9751 18.0098 19.0053 18.1003C19.7896 16.6523 20.6041 15.2344 21.5092 13.8769C21.7203 13.5752 21.9013 13.2735 22.1125 12.9719C22.203 12.821 22.3237 12.6702 22.4142 12.4892C22.5047 12.3082 22.5047 12.097 22.5348 11.8858C22.565 11.6445 22.565 11.4937 22.7158 11.3127C22.8365 11.1618 22.9572 11.0412 23.0779 10.8903C23.3494 10.5887 23.6209 10.287 23.9225 9.98532C23.9225 10.0457 24.1337 9.83448 24.1337 9.86465C24.5862 9.77415 24.8577 9.32164 25.099 8.9898C25.2197 8.83897 25.3102 8.68813 25.4611 8.59763C25.5214 8.56746 25.6421 8.5373 25.6722 8.50713C25.7627 8.38646 25.6722 8.26579 25.5516 8.23562C26.3661 7.42111 27.1806 6.63677 28.0253 5.85242C28.4476 5.46025 28.8699 5.06808 29.2621 4.6759C29.4733 4.4949 29.6845 4.28373 29.8655 4.10273C29.9861 3.98206 30.2878 3.55972 30.4688 3.77089C31.1023 3.04688 31.8263 2.41337 32.5805 1.84019C32.9727 1.53852 33.3648 1.26702 33.7268 0.995515C33.8475 0.905014 34.843 0.150836 34.843 0.150836C34.7525 0 34.6922 0.0603342 34.6922 0.0603342C34.6922 0.0301671 34.7224 0.0301671 34.7525 0C34.1793 0.271504 34.5715 0.120668 34.7525 0ZM18.8243 8.05462C19.7293 8.17529 20.574 8.5373 21.298 9.11047C21.479 9.26131 21.6298 9.38197 21.7505 9.62331C21.841 9.83448 21.9013 10.0457 21.9315 10.2568C21.9617 10.468 21.9617 10.6792 21.9315 10.8903C21.9315 10.9808 21.9315 11.1015 21.8712 11.192C21.8108 11.3127 21.66 11.4032 21.5695 11.4937C21.1773 11.8255 20.7248 12.1272 20.3326 12.4289C20.1215 12.5797 19.9405 12.7607 19.7595 12.9115C19.669 13.002 19.5785 13.0925 19.488 13.2132C19.4276 13.2735 19.3673 13.4244 19.307 13.3037C19.1561 13.6355 18.9148 13.9372 18.7036 14.2087C18.583 14.3294 18.4924 14.4501 18.3718 14.5707C18.2511 14.6612 18.0701 14.7819 18.0098 14.9026C17.9193 15.0534 17.9494 15.2646 17.8891 15.4456C17.8288 15.5662 17.7081 15.6266 17.5874 15.6869C17.3763 15.8377 17.1953 15.9886 17.0143 16.1394C15.5964 17.2556 14.4199 18.5829 13.0624 19.7896C11.8557 20.8455 10.1965 21.8108 8.6278 20.936C8.3563 20.7851 8.08479 20.5438 7.93396 20.2421C7.78312 19.9706 7.81329 19.6388 7.84346 19.3371C7.93396 18.5226 8.38646 17.7986 8.74847 17.1048C9.62332 15.4757 11.8255 12.4289 11.7652 12.5495C11.916 12.3384 12.097 12.1573 12.3082 11.9763C12.3082 12.097 12.3685 12.1875 12.3685 12.3082C12.3685 12.3384 12.3384 12.3384 12.3384 12.3384C12.3082 12.5194 12.3987 12.64 12.3685 12.7909C12.3685 12.9115 12.278 13.6959 12.278 13.726C12.2479 13.7562 12.2479 13.8165 12.2177 13.8467C12.1875 13.8467 12.0669 14.5104 12.2177 14.5104C12.3082 14.5104 12.278 14.1484 12.3082 14.0579C12.3685 13.8165 12.3987 13.545 12.459 13.2735C12.5194 12.9719 12.459 12.6702 12.4289 12.3685C12.4289 12.278 12.4289 12.1875 12.4289 12.097C12.4289 12.0367 12.3685 11.8858 12.3987 11.8255C12.4289 11.7652 12.5797 11.6445 12.64 11.6143C13.183 11.1317 17.1048 7.81328 18.8243 8.05462ZM20.3326 14.1785C19.3673 15.8076 18.3416 17.4064 17.3461 19.0355C17.3159 19.0053 17.2858 19.0053 17.2556 18.9751C16.4713 20.393 15.4154 21.6298 14.3596 22.8365C13.8467 23.4399 13.3339 24.0432 12.8512 24.6465C12.6099 24.9784 12.3384 25.3102 12.097 25.6421C11.8557 26.0041 11.554 26.3359 11.2523 26.6677C10.2267 27.8744 8.95964 29.3224 7.20995 29.2319C6.39543 29.2018 5.64126 28.8096 5.06808 28.2364C4.52507 27.6934 4.25357 26.9392 3.89156 26.3057C3.46922 25.5515 2.98655 24.7974 2.62454 24.013C2.26254 23.2287 2.08154 22.4745 2.0212 21.5997C1.90053 19.8198 1.71953 18.0399 1.59886 16.2902C1.47819 14.5707 1.44803 12.7607 1.68936 11.0412C1.81003 10.1965 2.14187 9.29147 2.47371 8.50713C2.77538 7.75295 3.19772 7.05911 3.74073 6.48593C4.91724 5.27925 6.75744 4.55523 8.3563 5.39991C9.11047 5.82225 9.71382 6.27476 10.1965 7.02894C10.7395 7.81328 11.1317 8.65796 11.4937 9.56298C11.4937 9.53281 11.4937 9.50264 11.4937 9.47248C11.5238 9.62331 11.5842 9.74398 11.6143 9.89482C11.6445 9.98532 11.7953 10.2267 11.7652 10.3172C11.735 10.4077 11.554 10.5585 11.4937 10.6188C11.4032 10.7093 11.3127 10.83 11.2222 10.9205C11.0412 11.1317 10.8602 11.3428 10.649 11.554C10.468 11.735 10.4982 11.7048 10.3172 11.554C9.65348 13.3942 6.90827 13.907 6.87811 16.0791C6.81777 15.9886 6.72727 15.8981 6.66694 15.8076C6.93844 16.2601 6.45577 17.1048 6.45577 17.2254C6.4256 17.3763 6.57644 17.6176 6.57644 17.7986C6.57644 18.1304 6.45577 18.4321 6.3351 18.7639C6.18426 19.1561 6.03343 19.5181 6.09376 19.9405C6.1541 20.3025 6.39543 20.6645 6.72727 20.8153C6.72727 20.8153 6.63677 20.8153 6.57644 20.8153C6.87811 21.0265 7.36078 21.1773 7.57195 21.5393C7.51162 21.5393 7.45128 21.6298 7.36078 21.6298C7.69262 22.2633 8.41663 22.565 9.08031 22.5348C9.92499 22.5047 10.649 22.1125 11.4333 21.8108C11.4333 21.9315 11.4032 22.0522 11.4032 22.203C11.6445 21.8108 12.1574 21.5997 12.5495 21.3583C12.9719 21.117 13.364 20.8455 13.6657 20.4231C13.6959 20.4835 13.726 20.5136 13.7562 20.574C13.8165 20.4231 13.8467 20.2723 13.907 20.0913C13.9674 20.1516 14.0277 20.212 14.088 20.2723C14.2087 20.3628 14.1484 20.393 14.2992 20.3025C14.6009 20.1215 14.8724 19.9103 15.1137 19.6388C15.5964 19.126 15.9282 18.5528 16.3808 18.0399C16.4411 18.1304 16.5014 18.2209 16.5618 18.3114C16.8634 17.1953 18.0098 16.7428 18.583 15.8076C18.583 15.8377 18.6131 15.8679 18.6131 15.8981C19.3673 15.1741 20.0611 14.3595 20.755 13.5752C20.574 13.7562 20.4533 13.9674 20.3326 14.1785C19.3371 15.8377 20.4533 13.9674 20.3326 14.1785Z" fill="#5637E3"/>
</svg>
