<svg width="14" height="13" viewBox="0 0 14 13" fill="none" xmlns="http://www.w3.org/2000/svg">
<path d="M0.152169 7.19382H11.2814L4.62022 12.7444C4.5137 12.8338 4.57837 13 4.71912 13H6.40249C6.47667 13 6.54705 12.9744 6.60221 12.9288L13.7903 6.94185C13.8561 6.88708 13.9089 6.81935 13.9451 6.74328C13.9813 6.6672 14 6.58454 14 6.50091C14 6.41728 13.9813 6.33463 13.9451 6.25855C13.9089 6.18247 13.8561 6.11475 13.7903 6.05997L6.56036 0.0365171C6.53183 0.0127811 6.49759 0 6.46145 0H4.72103C4.58027 0 4.5156 0.167977 4.62212 0.255618L11.2814 5.80618H0.152169C0.0684767 5.80618 9.53674e-07 5.87191 9.53674e-07 5.95225V7.04775C9.53674e-07 7.12809 0.0684767 7.19382 0.152169 7.19382Z" fill="url(#paint0_linear_394_61111)"/>
<defs>
<linearGradient id="paint0_linear_394_61111" x1="3.70192" y1="-7.06796" x2="6.60615" y2="18.7366" gradientUnits="userSpaceOnUse">
<stop stop-color="#030404"/>
<stop offset="1" stop-color="#1F48D7"/>
</linearGradient>
</defs>
</svg>
