<svg width="48" height="45" viewBox="0 0 48 45" fill="none" xmlns="http://www.w3.org/2000/svg">
<path d="M47.4783 24.9017L9.32095 24.9017L32.1593 44.1152C32.5245 44.4249 32.3027 45 31.8201 45L26.0486 45C25.7943 45 25.553 44.9115 25.3639 44.7535L0.719084 24.0295C0.493366 23.8399 0.312342 23.6055 0.188276 23.3421C0.0642106 23.0788 1.94143e-06 22.7927 1.96674e-06 22.5032C1.99204e-06 22.2137 0.0642107 21.9276 0.188276 21.6642C0.312342 21.4009 0.493367 21.1664 0.719084 20.9768L25.5073 0.126407C25.6051 0.0442439 25.7225 2.36794e-06 25.8464 2.37878e-06L31.8136 2.90044e-06C32.2962 2.94263e-06 32.5179 0.581464 32.1527 0.884834L9.32095 20.0983L47.4783 20.0983C47.7652 20.0983 48 20.3258 48 20.6039L48 24.3961C48 24.6742 47.7652 24.9017 47.4783 24.9017Z" fill="#5637E3"/>
</svg>
