<svg width="42" height="42" viewBox="0 0 42 42" fill="none" xmlns="http://www.w3.org/2000/svg">
<rect opacity="0.6" x="-0.392157" y="0.392157" width="39.2157" height="39.2157" transform="matrix(-1 0 0 1 40.2157 1)" stroke="#BDBDBD" stroke-width="0.784314"/>
<path fill-rule="evenodd" clip-rule="evenodd" d="M41 1H30.0196V1.30083H40.6992V11.9804H41V1Z" fill="#BDBDBD" stroke="#BDBDBD" stroke-width="1.56863"/>
<path fill-rule="evenodd" clip-rule="evenodd" d="M41 41H30.0196V40.6992H40.6992V30.0196H41V41Z" fill="#BDBDBD" stroke="#BDBDBD" stroke-width="1.56863"/>
<path fill-rule="evenodd" clip-rule="evenodd" d="M1 1H11.9804V1.30083H1.30083V11.9804H1V1Z" fill="#BDBDBD" stroke="#BDBDBD" stroke-width="1.56863"/>
<path fill-rule="evenodd" clip-rule="evenodd" d="M1 41H11.9804V40.6992H1.30083V30.0196H1V41Z" fill="#BDBDBD" stroke="#BDBDBD" stroke-width="1.56863"/>
<path d="M14.4427 30.2827L23.3309 14.8878L10.333 19.6692C10.1242 19.7451 9.94603 19.5229 10.0584 19.3282L11.4028 16.9997C11.4621 16.8971 11.5537 16.8201 11.6608 16.7803L25.6831 11.6186C25.8115 11.5712 25.9473 11.5523 26.0815 11.563C26.2156 11.5737 26.3449 11.6138 26.4606 11.6806C26.5763 11.7474 26.6756 11.8393 26.752 11.9501C26.8283 12.0609 26.8798 12.188 26.903 12.3229L29.4611 27.1344C29.4711 27.1928 29.4615 27.2504 29.4326 27.3004L28.0426 29.7079C27.9302 29.9026 27.6462 29.8579 27.61 29.6406L25.2504 15.996L16.3622 31.3909C16.2953 31.5067 16.1497 31.5489 16.0386 31.4847L14.5232 30.6098C14.4121 30.5457 14.3758 30.3984 14.4427 30.2827Z" fill="#BDBDBD"/>
</svg>
