<svg width="21" height="21" viewBox="0 0 21 21" fill="none" xmlns="http://www.w3.org/2000/svg">
<path d="M11.8788 10.5L20.3335 0.421933C20.4753 0.254448 20.3561 0 20.1371 0H17.5668C17.4154 0 17.2705 0.0676379 17.1707 0.183589L10.1975 8.49662L3.22434 0.183589C3.12771 0.0676379 2.98277 0 2.82817 0H0.257927C0.0389085 0 -0.0802635 0.254448 0.0614543 0.421933L8.51621 10.5L0.0614543 20.5781C0.0297082 20.6154 0.00934189 20.6611 0.00277252 20.7096C-0.00379685 20.7582 0.00370666 20.8076 0.024393 20.852C0.0450793 20.8965 0.0780796 20.934 0.119475 20.9602C0.160871 20.9865 0.208923 21.0003 0.257927 21H2.82817C2.97955 21 3.12449 20.9324 3.22434 20.8164L10.1975 12.5034L17.1707 20.8164C17.2673 20.9324 17.4122 21 17.5668 21H20.1371C20.3561 21 20.4753 20.7456 20.3335 20.5781L11.8788 10.5Z" fill="url(#paint0_linear_372_37926)"/>
<defs>
<linearGradient id="paint0_linear_372_37926" x1="15.0021" y1="32.4175" x2="9.81478" y2="-9.14738" gradientUnits="userSpaceOnUse">
<stop stop-color="#030404"/>
<stop offset="1" stop-color="#1F48D7"/>
</linearGradient>
</defs>
</svg>
