<svg viewBox="0 0 65 65" fill="none" xmlns="http://www.w3.org/2000/svg">
<path d="M41.1831 48.7848C40.8663 48.7839 40.5505 48.7491 40.2411 48.6811C34.3502 47.4625 28.9232 44.6053 24.5846 40.4384C20.3385 36.2623 17.3937 30.9452 16.1063 25.1304C15.9545 24.4057 15.9918 23.6542 16.2145 22.948C16.4372 22.2419 16.8379 21.605 17.378 21.0985L21.1461 17.4717C21.3386 17.2897 21.5673 17.1503 21.8173 17.0627C22.0672 16.975 22.3329 16.9411 22.5969 16.963C22.8706 16.9916 23.1347 17.0798 23.3707 17.2213C23.6067 17.3629 23.8088 17.5545 23.9628 17.7826L28.673 24.7442C28.8496 25.0143 28.9349 25.334 28.9162 25.6562C28.8975 25.9784 28.776 26.2861 28.5693 26.534L26.2048 29.3601C27.1465 31.4443 28.4802 33.328 30.1331 34.9087C31.7753 36.5467 33.7164 37.8546 35.8512 38.7616L38.7809 36.4348C39.027 36.2403 39.3264 36.1253 39.6394 36.1051C39.9524 36.0849 40.2641 36.1605 40.5331 36.3217L47.6454 40.9188C47.8895 41.0646 48.0974 41.2636 48.2536 41.5011C48.4099 41.7386 48.5103 42.0084 48.5475 42.2902C48.5846 42.5721 48.5575 42.8586 48.4682 43.1285C48.3789 43.3984 48.2296 43.6445 48.0317 43.8485L44.3577 47.4848C43.9404 47.9 43.4451 48.2287 42.9002 48.4518C42.3554 48.6749 41.7718 48.7881 41.1831 48.7848ZM22.4461 18.8282L18.678 22.4551C18.3742 22.7382 18.1493 23.0955 18.0254 23.4919C17.9015 23.8883 17.8829 24.3102 17.9715 24.7159C19.1686 30.1723 21.9202 35.1652 25.894 39.0913C29.9769 43.0116 35.084 45.699 40.6273 46.8442C41.0469 46.9319 41.4817 46.9141 41.8927 46.7925C42.3037 46.6708 42.6781 46.4491 42.9824 46.1471L46.6563 42.5109L39.7889 38.0739L36.6425 40.5797C36.5221 40.675 36.3801 40.7395 36.2291 40.7674C36.078 40.7953 35.9224 40.7858 35.7759 40.7398C33.1633 39.7773 30.7958 38.2493 28.8425 36.2652C26.8222 34.3785 25.254 32.06 24.2548 29.4826C24.2126 29.3266 24.2112 29.1623 24.2508 29.0055C24.2904 28.8488 24.3696 28.7049 24.4809 28.5877L27.0244 25.5449L22.4461 18.8282Z" fill="white"/>
<circle cx="32.5" cy="32.5" r="31.5" stroke="white" stroke-width="2"/>
</svg>
