<svg width="111" height="144" viewBox="0 0 111 144" fill="none" xmlns="http://www.w3.org/2000/svg">
<rect width="63.9929" height="63.9929" transform="matrix(0.866025 0.5 -0.866025 0.5 55.4199 80)" fill="url(#paint0_linear_397_244)"/>
<rect width="63.9929" height="63.9929" transform="matrix(0.866025 0.5 -0.866025 0.5 55.4199 60)" fill="url(#paint1_linear_397_244)"/>
<rect width="63.9929" height="63.9929" transform="matrix(0.866025 0.5 -0.866025 0.5 55.4199 40)" fill="url(#paint2_linear_397_244)"/>
<rect width="63.9929" height="63.9929" transform="matrix(0.866025 0.5 -0.866025 0.5 55.4199 20)" fill="url(#paint3_linear_397_244)"/>
<rect width="63.9929" height="63.9929" transform="matrix(0.866025 0.5 -0.866025 0.5 55.4199 0)" fill="url(#paint4_linear_397_244)"/>
<defs>
<linearGradient id="paint0_linear_397_244" x1="4.12387" y1="2.87613" x2="60.1214" y2="-0.894418" gradientUnits="userSpaceOnUse">
<stop stop-color="#0D1B4C"/>
<stop offset="1" stop-color="#7020D8"/>
</linearGradient>
<linearGradient id="paint1_linear_397_244" x1="4.12387" y1="2.87613" x2="60.1214" y2="-0.894418" gradientUnits="userSpaceOnUse">
<stop stop-color="#0D1B4C"/>
<stop offset="1" stop-color="#5B20D8"/>
</linearGradient>
<linearGradient id="paint2_linear_397_244" x1="4.12387" y1="2.87613" x2="60.1214" y2="-0.894418" gradientUnits="userSpaceOnUse">
<stop stop-color="#0D1B4C"/>
<stop offset="1" stop-color="#1D39C9"/>
</linearGradient>
<linearGradient id="paint3_linear_397_244" x1="4.12387" y1="2.87613" x2="63.1239" y2="2.87613" gradientUnits="userSpaceOnUse">
<stop stop-color="#122874"/>
<stop offset="1" stop-color="#2048D7"/>
</linearGradient>
<linearGradient id="paint4_linear_397_244" x1="4.12387" y1="2.87613" x2="63.1239" y2="2.87613" gradientUnits="userSpaceOnUse">
<stop stop-color="#122874"/>
<stop offset="1" stop-color="#2048D7"/>
</linearGradient>
</defs>
</svg>
