<svg width="68" height="116" viewBox="0 0 68 116" fill="none" xmlns="http://www.w3.org/2000/svg">
<path d="M62.6979 86.3904C65.5564 83.5667 67.1925 80.2882 67.1925 76.7915C67.1925 66.1888 52.1509 57.5936 33.5962 57.5936C15.0416 57.5936 0 66.1888 0 76.7915C0 80.2882 1.63604 83.5667 4.49458 86.3904C10.3035 80.6522 21.1609 76.7915 33.5962 76.7915C46.0316 76.7915 56.889 80.6522 62.6979 86.3904Z" fill="url(#paint0_linear_355_105)"/>
<path d="M33.5962 95.9893C52.1509 95.9893 67.1925 87.3941 67.1925 76.7914V95.9893C67.1925 106.592 52.1509 115.187 33.5962 115.187C15.0416 115.187 0 106.592 0 95.9893V76.7914C0 87.3941 15.0416 95.9893 33.5962 95.9893Z" fill="url(#paint1_linear_355_105)"/>
<path d="M62.6979 57.5935C65.5564 54.7697 67.1925 51.4913 67.1925 47.9945C67.1925 37.3919 52.1509 28.7967 33.5962 28.7967C15.0416 28.7967 0 37.3919 0 47.9945C0 51.4913 1.63604 54.7697 4.49458 57.5935C10.3035 51.8552 21.1609 47.9945 33.5962 47.9945C46.0316 47.9945 56.889 51.8552 62.6979 57.5935Z" fill="url(#paint2_linear_355_105)"/>
<path d="M33.5962 67.1924C52.1509 67.1924 67.1925 58.5972 67.1925 47.9945V67.1924C67.1925 77.795 52.1509 86.3902 33.5962 86.3902C15.0416 86.3902 0 77.795 0 67.1924V47.9945C0 58.5972 15.0416 67.1924 33.5962 67.1924Z" fill="url(#paint3_linear_355_105)"/>
<path d="M62.6979 28.7968C65.5564 25.973 67.1925 22.6946 67.1925 19.1979C67.1925 8.59517 52.1509 0 33.5962 0C15.0416 0 0 8.59517 0 19.1979C0 22.6946 1.63604 25.973 4.49458 28.7968C10.3035 23.0585 21.1609 19.1979 33.5962 19.1979C46.0316 19.1979 56.889 23.0585 62.6979 28.7968Z" fill="url(#paint4_linear_355_105)"/>
<path d="M33.5962 38.3957C52.1509 38.3957 67.1925 29.8005 67.1925 19.1978V38.3957C67.1925 48.9983 52.1509 57.5935 33.5962 57.5935C15.0416 57.5935 0 48.9983 0 38.3957V19.1978C0 29.8005 15.0416 38.3957 33.5962 38.3957Z" fill="url(#paint5_linear_355_105)"/>
<defs>
<linearGradient id="paint0_linear_355_105" x1="33.5962" y1="57.5936" x2="33.5962" y2="83.9907" gradientUnits="userSpaceOnUse">
<stop stop-color="#D3D3D3"/>
<stop offset="1" stop-color="#929292"/>
</linearGradient>
<linearGradient id="paint1_linear_355_105" x1="33.5962" y1="87.9902" x2="33.5962" y2="115.187" gradientUnits="userSpaceOnUse">
<stop stop-color="white" stop-opacity="0.9"/>
<stop offset="1" stop-color="#9A9A9A"/>
</linearGradient>
<linearGradient id="paint2_linear_355_105" x1="33.5962" y1="28.7967" x2="33.5962" y2="55.1937" gradientUnits="userSpaceOnUse">
<stop stop-color="#D3D3D3"/>
<stop offset="1" stop-color="#929292"/>
</linearGradient>
<linearGradient id="paint3_linear_355_105" x1="33.5962" y1="59.1933" x2="33.5962" y2="86.3902" gradientUnits="userSpaceOnUse">
<stop stop-color="white" stop-opacity="0.9"/>
<stop offset="1" stop-color="#9A9A9A"/>
</linearGradient>
<linearGradient id="paint4_linear_355_105" x1="33.5962" y1="0" x2="33.5962" y2="26.397" gradientUnits="userSpaceOnUse">
<stop stop-color="white"/>
<stop offset="1" stop-color="#8A8A8A"/>
</linearGradient>
<linearGradient id="paint5_linear_355_105" x1="33.5962" y1="30.3966" x2="33.5962" y2="57.5935" gradientUnits="userSpaceOnUse">
<stop stop-color="white"/>
<stop offset="1" stop-color="#9F9F9F"/>
</linearGradient>
</defs>
</svg>
