<svg width="111" height="116" viewBox="0 0 111 116" fill="none" xmlns="http://www.w3.org/2000/svg">
<rect width="63.9929" height="63.9929" transform="matrix(0.866025 0.5 -0.866025 0.5 55.4194 51.1943)" fill="url(#paint0_linear_394_23443)"/>
<rect width="63.9929" height="63.9929" transform="matrix(0.866025 0.5 -0.866025 0.5 55.4194 38.3956)" fill="url(#paint1_linear_394_23443)"/>
<rect width="63.9929" height="63.9929" transform="matrix(0.866025 0.5 -0.866025 0.5 55.4194 25.5972)" fill="url(#paint2_linear_394_23443)"/>
<rect width="63.9929" height="63.9929" transform="matrix(0.866025 0.5 -0.866025 0.5 55.4194 12.7986)" fill="url(#paint3_linear_394_23443)"/>
<rect width="63.9929" height="63.9929" transform="matrix(0.866025 0.5 -0.866025 0.5 55.4194 0)" fill="url(#paint4_linear_394_23443)"/>
<defs>
<linearGradient id="paint0_linear_394_23443" x1="71.5236" y1="70.8604" x2="13.9301" y2="70.8604" gradientUnits="userSpaceOnUse">
<stop stop-color="#F7F7F7" stop-opacity="0.85"/>
<stop offset="1" stop-color="#8C8C8C" stop-opacity="0.83"/>
</linearGradient>
<linearGradient id="paint1_linear_394_23443" x1="70.7237" y1="70.0605" x2="4.1124" y2="72.721" gradientUnits="userSpaceOnUse">
<stop stop-color="white"/>
<stop offset="1" stop-color="#878787"/>
</linearGradient>
<linearGradient id="paint2_linear_394_23443" x1="69.1239" y1="68.4607" x2="4.11219" y2="71.1186" gradientUnits="userSpaceOnUse">
<stop stop-color="white"/>
<stop offset="1" stop-color="#929292"/>
</linearGradient>
<linearGradient id="paint3_linear_394_23443" x1="70.6" y1="71.7841" x2="2.26934" y2="72.6954" gradientUnits="userSpaceOnUse">
<stop stop-color="white"/>
<stop offset="1" stop-color="#8A8A8A"/>
</linearGradient>
<linearGradient id="paint4_linear_394_23443" x1="64.3244" y1="63.6612" x2="-0.00666661" y2="64.5718" gradientUnits="userSpaceOnUse">
<stop stop-color="white"/>
<stop offset="1" stop-color="#999999"/>
</linearGradient>
</defs>
</svg>
