<svg width="68" height="144" viewBox="0 0 68 144" fill="none" xmlns="http://www.w3.org/2000/svg">
<path d="M62.6979 114.797C65.5564 111.973 67.1925 108.695 67.1925 105.198C67.1925 94.5952 52.1509 86 33.5962 86C15.0416 86 0 94.5952 0 105.198C0 108.695 1.63604 111.973 4.49458 114.797C10.3035 109.059 21.1609 105.198 33.5962 105.198C46.0316 105.198 56.889 109.059 62.6979 114.797Z" fill="url(#paint0_linear_397_250)"/>
<path d="M62.6979 114.797C65.5564 111.973 67.1925 108.695 67.1925 105.198C67.1925 94.5952 52.1509 86 33.5962 86C15.0416 86 0 94.5952 0 105.198C0 108.695 1.63604 111.973 4.49458 114.797C10.3035 109.059 21.1609 105.198 33.5962 105.198C46.0316 105.198 56.889 109.059 62.6979 114.797Z" fill="black" fill-opacity="0.2"/>
<path d="M33.5962 124.396C52.1509 124.396 67.1925 115.8 67.1925 105.198V124.396C67.1925 134.998 52.1509 143.593 33.5962 143.593C15.0416 143.593 0 134.998 0 124.396V105.198C0 115.8 15.0416 124.396 33.5962 124.396Z" fill="url(#paint1_linear_397_250)"/>
<path d="M62.6979 70.5935C65.5564 67.7697 67.1925 64.4913 67.1925 60.9945C67.1925 50.3919 52.1509 41.7967 33.5962 41.7967C15.0416 41.7967 0 50.3919 0 60.9945C0 64.4913 1.63604 67.7697 4.49458 70.5935C10.3035 64.8552 21.1609 60.9945 33.5962 60.9945C46.0316 60.9945 56.889 64.8552 62.6979 70.5935Z" fill="url(#paint2_linear_397_250)"/>
<path d="M62.6979 70.5935C65.5564 67.7697 67.1925 64.4913 67.1925 60.9945C67.1925 50.3919 52.1509 41.7967 33.5962 41.7967C15.0416 41.7967 0 50.3919 0 60.9945C0 64.4913 1.63604 67.7697 4.49458 70.5935C10.3035 64.8552 21.1609 60.9945 33.5962 60.9945C46.0316 60.9945 56.889 64.8552 62.6979 70.5935Z" fill="black" fill-opacity="0.2"/>
<path d="M33.5962 80.1924C52.1509 80.1924 67.1925 71.5972 67.1925 60.9945V80.1924C67.1925 90.795 52.1509 99.3902 33.5962 99.3902C15.0416 99.3902 0 90.795 0 80.1924V60.9945C0 71.5972 15.0416 80.1924 33.5962 80.1924Z" fill="url(#paint3_linear_397_250)"/>
<path d="M62.6979 28.7968C65.5564 25.973 67.1925 22.6946 67.1925 19.1979C67.1925 8.59517 52.1509 0 33.5962 0C15.0416 0 0 8.59517 0 19.1979C0 22.6946 1.63604 25.973 4.49458 28.7968C10.3035 23.0585 21.1609 19.1979 33.5962 19.1979C46.0316 19.1979 56.889 23.0585 62.6979 28.7968Z" fill="url(#paint4_linear_397_250)"/>
<path d="M33.5962 38.3957C52.1509 38.3957 67.1925 29.8005 67.1925 19.1978V38.3957C67.1925 48.9983 52.1509 57.5935 33.5962 57.5935C15.0416 57.5935 0 48.9983 0 38.3957V19.1978C0 29.8005 15.0416 38.3957 33.5962 38.3957Z" fill="url(#paint5_linear_397_250)"/>
<defs>
<linearGradient id="paint0_linear_397_250" x1="49.4252" y1="130.453" x2="46.4265" y2="72.7245" gradientUnits="userSpaceOnUse">
<stop offset="0.078125" stop-color="#030404"/>
<stop offset="1" stop-color="#1F48D7"/>
</linearGradient>
<linearGradient id="paint1_linear_397_250" x1="84" y1="113.077" x2="45.6031" y2="112.323" gradientUnits="userSpaceOnUse">
<stop stop-color="#030404"/>
<stop offset="1" stop-color="#701FD7"/>
</linearGradient>
<linearGradient id="paint2_linear_397_250" x1="49.4252" y1="86.25" x2="46.4265" y2="28.5211" gradientUnits="userSpaceOnUse">
<stop offset="0.078125" stop-color="#030404"/>
<stop offset="1" stop-color="#1F48D7"/>
</linearGradient>
<linearGradient id="paint3_linear_397_250" x1="76" y1="68.6702" x2="45.6575" y2="67.5188" gradientUnits="userSpaceOnUse">
<stop stop-color="#040304"/>
<stop offset="1" stop-color="#4F1FD7"/>
</linearGradient>
<linearGradient id="paint4_linear_397_250" x1="49.4252" y1="44.4533" x2="46.4265" y2="-13.2755" gradientUnits="userSpaceOnUse">
<stop offset="0.078125" stop-color="#030404"/>
<stop offset="1" stop-color="#1F48D7"/>
</linearGradient>
<linearGradient id="paint5_linear_397_250" x1="82" y1="35.1702" x2="42.2857" y2="36.7366" gradientUnits="userSpaceOnUse">
<stop stop-color="#030404"/>
<stop offset="1" stop-color="#1F48D7"/>
</linearGradient>
</defs>
</svg>
