<svg width="14" height="13" viewBox="0 0 14 13" fill="none" xmlns="http://www.w3.org/2000/svg">
<path d="M13.8478 5.80618H2.71861L9.37978 0.255618C9.4863 0.166152 9.42163 0 9.28088 0H7.59751C7.52333 0 7.45295 0.0255617 7.39779 0.0712078L0.209732 6.05815C0.143898 6.11292 0.0910992 6.18065 0.0549134 6.25672C0.0187275 6.3328 0 6.41546 0 6.49909C0 6.58272 0.0187275 6.66537 0.0549134 6.74145C0.0910992 6.81753 0.143898 6.88525 0.209732 6.94003L7.43964 12.9635C7.46817 12.9872 7.50241 13 7.53855 13H9.27897C9.41973 13 9.4844 12.832 9.37788 12.7444L2.71861 7.19382H13.8478C13.9315 7.19382 14 7.12809 14 7.04775V5.95225C14 5.87191 13.9315 5.80618 13.8478 5.80618Z" fill="white"/>
</svg>
